<svg width="54" height="54" viewBox="0 0 54 54" fill="none" xmlns="http://www.w3.org/2000/svg">
<rect x="11" y="12" width="32" height="30" rx="6" stroke="#44D058" stroke-width="2"/>
<path fill-rule="evenodd" clip-rule="evenodd" d="M16 27C16 26.4477 16.4477 26 17 26H21C21.5523 26 22 26.4477 22 27C22 27.5523 21.5523 28 21 28H17C16.4477 28 16 27.5523 16 27ZM16 31C16 30.4477 16.4477 30 17 30H21C21.5523 30 22 30.4477 22 31C22 31.5523 21.5523 32 21 32H17C16.4477 32 16 31.5523 16 31ZM17 34C16.4477 34 16 34.4477 16 35C16 35.5523 16.4477 36 17 36H21C21.5523 36 22 35.5523 22 35C22 34.4477 21.5523 34 21 34H17Z" fill="#A1E7AB"/>
<rect x="10" y="18" width="34" height="2" fill="#44D058"/>
<path opacity="0.5" fill-rule="evenodd" clip-rule="evenodd" d="M32 27C32 26.4477 32.4477 26 33 26H37C37.5523 26 38 26.4477 38 27C38 27.5523 37.5523 28 37 28H33C32.4477 28 32 27.5523 32 27ZM32 31C32 30.4477 32.4477 30 33 30H37C37.5523 30 38 30.4477 38 31C38 31.5523 37.5523 32 37 32H33C32.4477 32 32 31.5523 32 31ZM33 34C32.4477 34 32 34.4477 32 35C32 35.5523 32.4477 36 33 36H37C37.5523 36 38 35.5523 38 35C38 34.4477 37.5523 34 37 34H33Z" fill="#44D058"/>
<rect opacity="0.5" x="26" y="24" width="2" height="14" rx="1" fill="#44D058"/>
</svg>
