<svg width="110" height="110" viewBox="0 0 110 110" fill="none" xmlns="http://www.w3.org/2000/svg">
<circle cx="55" cy="55" r="55" fill="white"/>
<circle cx="55" cy="55" r="54.5" stroke="black" stroke-opacity="0.1"/>
<path opacity="0.3" d="M34.4177 40.6774L54.4742 20.4282L74.5814 40.6264L72.5048 42.7177L55.2339 25.3247L54.4742 24.6106L53.7651 25.3247L36.4942 42.7687L34.4177 40.6774ZM35.7851 43.4828L33.7086 41.3915L32.9995 40.6774L33.7086 39.9634L53.7651 19.7141L54.4742 19L55.1833 19.7141L75.2904 39.9124L75.9995 40.6264L75.2904 41.3405L73.2139 43.4828L75.2904 45.574L75.9995 46.2881L75.2904 47.0022L73.1632 49.1444L75.2904 51.2866L75.9995 52.0007L75.2904 52.7148L73.4671 54.551L75.2904 56.3872L75.9995 57.1013L75.2904 57.8154L73.2139 59.9066L75.2904 61.9978L75.9995 62.7119L75.2904 63.426L73.2139 65.5172L75.2904 67.6085L75.9995 68.3226L75.2904 69.0366L55.1833 89.2859L54.4742 90L53.7651 89.2859L33.7086 69.0876L32.9995 68.3736L33.7086 67.6595L35.7851 65.5683L33.7086 63.477L32.9995 62.7629L33.7086 62.0489L35.7851 59.9576L33.7086 57.8664L32.9995 57.1523L33.7086 56.4382L35.5319 54.602L33.7086 52.7658L32.9995 52.0517L33.7086 51.3376L35.8358 49.1954L33.7086 47.0532L32.9995 46.3391L33.7086 45.625L35.7851 43.4828ZM71.7957 43.4828L54.4742 26.0388L37.2033 43.4828L39.3305 45.625L53.7651 31.0884L54.4742 30.3743L55.1833 31.0884L69.6179 45.625L71.7957 43.4828ZM70.3776 46.3391L72.5048 44.1968L74.5814 46.2881L72.4542 48.4303L70.3776 46.3391ZM68.9088 46.3391L54.4742 31.8534L40.0902 46.3391L41.9135 48.1753L53.8158 36.1889L54.5248 35.4749L55.2339 36.1889L67.1361 48.1753L68.9088 46.3391ZM67.8452 48.8894L69.6685 47.0532L71.7451 49.1444L69.9218 50.9806L67.8452 48.8894ZM66.3764 48.8894L54.4742 36.954L42.6226 48.8894L44.6992 50.9806L53.8158 41.7996L54.5248 41.0855L55.2339 41.7996L64.3505 50.9806L66.3764 48.8894ZM65.0089 51.7457L67.0855 49.6545L69.1621 51.7457L67.0855 53.8369L65.0089 51.7457ZM63.5908 51.7457L54.4742 42.5647L45.3576 51.7457L47.4341 53.8369L53.7651 47.4612L54.4742 46.7471L55.1833 47.4612L61.5142 53.8369L63.5908 51.7457ZM62.2233 54.551L64.2999 52.4598L66.3764 54.551L64.2999 56.6422L62.2233 54.551ZM60.8052 54.551L54.4742 48.1753L48.1939 54.551L54.5248 60.9267L60.8052 54.551ZM47.4341 55.2651L53.7651 61.6408L54.4742 62.3549L55.1833 61.6408L61.5142 55.2651L63.5908 57.3563L54.4742 66.5374L45.3576 57.3563L47.4341 55.2651ZM46.7251 54.551L44.6485 52.4598L42.572 54.551L44.6485 56.6422L46.7251 54.551ZM43.9394 51.7457L41.8629 49.6545L39.7863 51.7457L41.8629 53.8369L43.9394 51.7457ZM41.1538 48.8894L39.3305 47.0532L37.2539 49.1444L39.0773 50.9806L41.1538 48.8894ZM38.6214 46.3391L36.5449 48.4303L34.4177 46.2881L36.4942 44.1968L38.6214 46.3391ZM72.4035 49.9095L70.5802 51.7457L72.7074 53.8879L74.5307 52.0517L72.4035 49.9095ZM69.8711 52.4598L67.7946 54.551L69.9218 56.6933L71.9983 54.602L69.8711 52.4598ZM67.0855 55.2651L65.0089 57.3563L67.1361 59.4986L69.2127 57.4073L67.0855 55.2651ZM53.7651 67.2004L44.6485 58.0194L42.5213 60.1616L54.4742 72.199L66.4271 60.1616L64.2999 58.0194L55.1833 67.2004L54.4742 67.9655L53.7651 67.2004ZM41.8629 55.2651L43.9394 57.3563L41.8122 59.4986L39.7357 57.4073L41.8629 55.2651ZM39.0773 52.4598L41.1538 54.551L39.0266 56.6933L36.95 54.602L39.0773 52.4598ZM36.241 53.8879L38.3682 51.7457L36.5449 49.9095L34.4177 52.0517L36.241 53.8879ZM70.6815 57.4073L72.7581 55.3161L74.5814 57.1523L72.5048 59.2435L70.6815 57.4073ZM67.8959 60.2126L69.9724 58.1214L71.7957 59.9576L69.7192 62.0489L67.8959 60.2126ZM41.8122 60.9267L53.7651 72.9641L54.4742 73.6782L55.1833 72.9641L67.1361 60.9267L68.9595 62.7629L54.4742 77.3506L39.9889 62.7629L41.8122 60.9267ZM41.1032 60.2126L39.0266 58.1214L37.2033 59.9576L39.2798 62.0489L41.1032 60.2126ZM38.3175 57.4073L36.4942 59.2435L34.4177 57.1523L36.241 55.3161L38.3175 57.4073ZM72.5048 60.6717L70.4283 62.7629L72.5048 64.8542L74.5814 62.7629L72.5048 60.6717ZM53.7651 78.1157L39.2798 63.477L37.2033 65.5683L54.5248 83.0122L71.8464 65.5683L69.7698 63.477L55.2846 78.0647L54.5755 78.7787L53.7651 78.1157ZM36.4942 64.8542L38.5708 62.7629L36.4942 60.6717L34.4177 62.7629L36.4942 64.8542ZM72.5048 66.2823L74.5814 68.3736L54.4742 88.6228L34.4177 68.3736L36.4942 66.2823L53.8158 83.7263L54.5248 84.4404L55.2339 83.7263L72.5048 66.2823Z" fill="#939BA1"/>
<path d="M42.1446 49.0521L43.8293 49.8863V59.8957H42.1446V55.2559H40.2556V59.8957H38.5708V49H40.2556V53.6398H42.1446V49.0521ZM68.3861 59.8957V49.0521L70.0708 49.8863V59.8957H68.3861ZM70.0708 49V49.0521V49ZM24.6843 50.8768L23.9185 50.6161H27.5433V49.0521H22.9995V59.8957H27.5433V58.3318H24.6843V55.4123L23.9185 55.1517H26.9817V53.6398H24.6843V50.8768ZM32.1381 50.564H30.4023V49H35.5587V50.564H32.9549L33.8229 51.0332V59.8957H32.1381V50.564ZM51.9979 49H54.4485C56.1332 49 56.9501 49.9384 56.9501 51.7109V53.1185C56.9501 54.8389 56.1332 55.8294 54.4485 55.8294H53.6827V59.8957H51.9979V49ZM55.2653 51.6066C55.2653 50.8246 54.959 50.564 54.4485 50.564H54.1932H52.5084L53.6827 51.8673V54.2654H54.4485C54.959 54.2654 55.2653 54.0047 55.2653 53.2227V51.6066ZM65.0676 59.8957C65.0676 59.8957 65.0165 59.1137 65.0165 58.5924V56.9242C65.0165 55.7773 64.7613 54.9431 63.8933 54.6303C64.6592 54.2654 64.9655 53.5355 64.9655 52.4408V51.6066C64.9655 49.9384 64.1997 49.1043 62.4639 49.1043H59.9622V59.9479H61.647V55.5166H62.2086C62.9744 55.5166 63.2807 55.8815 63.2807 56.9242V58.6446V60H65.0676V59.8957ZM62.4639 50.564C63.0765 50.564 63.3318 50.9289 63.3318 51.6588V52.7536C63.3318 53.6398 62.9744 53.9005 62.3107 53.9005H61.647V51.0853L60.6259 50.564H62.3107H62.4639ZM73.4404 49V50.564H76.4525L73.2872 58.3318V59.8436H78.1883V58.2796H75.023L78.1883 50.5118V49H73.4404ZM83.1405 50.8246L82.3747 50.564H85.9995V49H81.4557V59.8436H85.9995V58.2796H83.0895V55.3602L82.3237 55.0995H85.3869V53.5877H83.0895V50.8246H83.1405Z" fill="#939BA1"/>
</svg>
