<svg width="48" height="48" viewBox="0 0 48 48" fill="none" xmlns="http://www.w3.org/2000/svg">
<circle opacity="0.1" cx="24" cy="24" r="24" fill="#5EC12F"/>
<path d="M22.9339 41.8879C22.9066 41.8879 22.8794 41.9159 22.8794 41.9439C22.8794 41.972 22.9066 42 22.9339 42C22.9611 42 22.9883 41.972 22.9883 41.9439C23.0156 41.8879 22.9883 41.8879 22.9339 41.8879ZM21.2996 41.271C21.2451 41.271 21.1907 41.3271 21.1907 41.3832C21.1907 41.4393 21.2451 41.4953 21.2996 41.4953C21.3541 41.4953 21.4086 41.4393 21.4086 41.3832C21.4086 41.3271 21.3541 41.271 21.2996 41.271ZM19.6926 40.514C19.5837 40.514 19.5019 40.5981 19.5019 40.7103C19.5019 40.8224 19.5837 40.9065 19.6926 40.9065C19.8016 40.9065 19.8833 40.8224 19.8833 40.7103C19.8833 40.5981 19.8016 40.514 19.6926 40.514ZM18.1946 39.5888C18.0584 39.5888 17.9494 39.7009 17.9494 39.8411C17.9494 39.9813 18.0584 40.0935 18.1946 40.0935C18.3307 40.0935 18.4397 39.9813 18.4397 39.8411C18.4125 39.7009 18.3035 39.5888 18.1946 39.5888ZM16.7782 38.4953C16.6148 38.4953 16.4786 38.6355 16.4786 38.8037C16.4786 38.972 16.6148 39.1122 16.7782 39.1122C16.9416 39.1122 17.0778 38.972 17.0778 38.8037C17.0778 38.6075 16.9416 38.4953 16.7782 38.4953ZM15.4708 37.2336C15.2802 37.2336 15.1167 37.4019 15.1167 37.5981C15.1167 37.7944 15.2802 37.9626 15.4708 37.9626C15.6615 37.9626 15.8249 37.7944 15.8249 37.5981C15.8249 37.4019 15.6615 37.2336 15.4708 37.2336ZM14.2996 35.8598C14.0817 35.8598 13.891 36.0561 13.891 36.2804C13.891 36.5047 14.0817 36.7009 14.2996 36.7009C14.5175 36.7009 14.7082 36.5047 14.7082 36.2804C14.7082 36.0561 14.5175 35.8598 14.2996 35.8598ZM13.2646 34.3738C12.9922 34.3738 12.7743 34.5981 12.7743 34.8785C12.7743 35.1589 12.9922 35.3832 13.2646 35.3832C13.537 35.3832 13.7549 35.1589 13.7549 34.8785C13.7549 34.5981 13.537 34.3738 13.2646 34.3738ZM12.965 33.3084C12.965 33 12.7198 32.7477 12.4202 32.7477C12.1206 32.7477 11.8755 33 11.8755 33.3084C11.8755 33.6168 12.1206 33.8692 12.4202 33.8692C12.7198 33.8411 12.965 33.5888 12.965 33.3084ZM12.393 31.6262C12.393 31.2897 12.1206 31.0093 11.7938 31.0093C11.4669 31.0093 11.1946 31.2897 11.1946 31.6262C11.1946 31.9626 11.4669 32.243 11.7938 32.243C12.1206 32.243 12.393 31.9907 12.393 31.6262ZM12.0389 29.9159C12.0389 29.5514 11.7393 29.243 11.3852 29.243C11.0311 29.243 10.7315 29.5514 10.7315 29.9159C10.7315 30.2804 11.0311 30.5888 11.3852 30.5888C11.7393 30.5888 12.0389 30.2804 12.0389 29.9159ZM11.9027 28.1215C11.9027 27.7009 11.5759 27.3925 11.1946 27.3925C10.8132 27.3925 10.4864 27.729 10.4864 28.1215C10.4864 28.514 10.8132 28.8505 11.1946 28.8505C11.5759 28.8785 11.9027 28.5421 11.9027 28.1215ZM11.1946 27.1402C11.6303 27.1402 11.9572 26.7757 11.9572 26.3271C11.9572 25.8785 11.6031 25.5421 11.1946 25.5421C10.7588 25.5421 10.4047 25.9065 10.4047 26.3271C10.4319 26.7757 10.786 27.1402 11.1946 27.1402ZM10.6226 24.5888C10.6226 25.0654 11.0039 25.4579 11.4669 25.4579C11.93 25.4579 12.3113 25.0654 12.3113 24.5888C12.3113 24.1122 11.93 23.7196 11.4669 23.7196C11.0039 23.7196 10.6226 24.1122 10.6226 24.5888ZM35.7354 37.7664C35.7082 37.7664 35.6809 37.7944 35.6809 37.8224C35.6809 37.8505 35.7082 37.8785 35.7354 37.8785C35.7626 37.8785 35.7899 37.8505 35.7899 37.8224C35.7626 37.7944 35.7626 37.7664 35.7354 37.7664ZM34.1829 38.5514C34.1284 38.5514 34.0739 38.6075 34.0739 38.6636C34.0739 38.7196 34.1284 38.7757 34.1829 38.7757C34.2374 38.7757 34.2918 38.7196 34.2918 38.6636C34.2918 38.5794 34.2374 38.5514 34.1829 38.5514ZM32.5759 39.1402C32.4942 39.1402 32.4125 39.2243 32.4125 39.3084C32.4125 39.3925 32.4942 39.4766 32.5759 39.4766C32.6576 39.4766 32.7393 39.3925 32.7393 39.3084C32.7393 39.2243 32.6576 39.1402 32.5759 39.1402ZM30.9144 39.5607C30.8054 39.5607 30.6965 39.6449 30.6965 39.785C30.6965 39.8972 30.7782 40.0093 30.9144 40.0093C31.0233 40.0093 31.1323 39.8972 31.1323 39.785C31.1051 39.6729 31.0233 39.5607 30.9144 39.5607ZM29.1984 39.8131C29.0623 39.8131 28.9261 39.9252 28.9261 40.0935C28.9261 40.2336 29.035 40.3738 29.1984 40.3738C29.3346 40.3738 29.4708 40.2617 29.4708 40.0935C29.4708 39.9252 29.3346 39.8131 29.1984 39.8131ZM27.4553 39.8692C27.2918 39.8692 27.1284 40.0093 27.1284 40.2056C27.1284 40.3738 27.2646 40.5421 27.4553 40.5421C27.6187 40.5421 27.7821 40.4019 27.7821 40.2056C27.7821 40.0093 27.6459 39.8692 27.4553 39.8692ZM25.7393 39.729C25.5486 39.729 25.358 39.8972 25.358 40.1215C25.358 40.3178 25.5214 40.514 25.7393 40.514C25.93 40.514 26.1206 40.3458 26.1206 40.1215C26.0934 39.8972 25.93 39.729 25.7393 39.729ZM24.0233 39.4206C23.7782 39.4206 23.6148 39.6168 23.6148 39.8411C23.6148 40.0935 23.8054 40.2897 24.0233 40.2897C24.2685 40.2897 24.4591 40.0935 24.4591 39.8411C24.4319 39.6168 24.2412 39.4206 24.0233 39.4206ZM22.3619 38.8879C22.0895 38.8879 21.8988 39.1122 21.8988 39.3645C21.8988 39.6449 22.1167 39.8411 22.3619 39.8411C22.6342 39.8411 22.8249 39.6168 22.8249 39.3645C22.8249 39.0841 22.607 38.8879 22.3619 38.8879ZM20.7549 38.1028C20.4553 38.1028 20.2374 38.3551 20.2374 38.6355C20.2374 38.9439 20.4825 39.1682 20.7549 39.1682C21.0545 39.1682 21.2724 38.9159 21.2724 38.6355C21.2996 38.3551 21.0545 38.1028 20.7549 38.1028ZM19.856 37.7383C19.856 37.4019 19.5837 37.1495 19.284 37.1495C18.9572 37.1495 18.7121 37.4019 18.7121 37.7383C18.7121 38.0748 18.9844 38.3271 19.284 38.3271C19.5837 38.3271 19.856 38.0748 19.856 37.7383ZM17.9222 35.972C17.5681 35.972 17.2957 36.2523 17.2957 36.6168C17.2957 36.9813 17.5681 37.2617 17.9222 37.2617C18.2763 37.2617 18.5486 36.9813 18.5486 36.6168C18.5486 36.2523 18.2763 35.972 17.9222 35.972ZM16.7237 34.6262C16.3424 34.6262 16.0428 34.9346 16.0428 35.3271C16.0428 35.7196 16.3424 36.028 16.7237 36.028C17.1051 36.028 17.4047 35.7196 17.4047 35.3271C17.4047 34.9346 17.1051 34.6262 16.7237 34.6262ZM15.6887 34.6542C16.0973 34.6542 16.4241 34.3178 16.4241 33.8972C16.4241 33.4766 16.0973 33.1402 15.6887 33.1402C15.2802 33.1402 14.9533 33.4766 14.9533 33.8972C14.9533 34.3178 15.2802 34.6542 15.6887 34.6542ZM15.6342 32.3551C15.6342 31.9065 15.2802 31.5421 14.8444 31.5421C14.4086 31.5421 14.0545 31.9065 14.0545 32.3551C14.0545 32.8037 14.4086 33.1682 14.8444 33.1682C15.2802 33.1682 15.6342 32.8037 15.6342 32.3551ZM41.9455 25.5701C41.9183 25.5701 41.8911 25.5981 41.8911 25.6262C41.8911 25.6542 41.9183 25.6822 41.9455 25.6822C41.9728 25.6822 42 25.6542 42 25.6262C41.9728 25.5701 41.9455 25.5701 41.9455 25.5701ZM41.428 27.2243C41.3735 27.2243 41.3463 27.2804 41.3463 27.3084C41.3463 27.3645 41.4008 27.3925 41.428 27.3925C41.4825 27.3925 41.5097 27.3364 41.5097 27.3084C41.5097 27.2523 41.4552 27.2243 41.428 27.2243ZM40.7198 28.7944C40.6381 28.7944 40.5837 28.8505 40.5837 28.9346C40.5837 29.0187 40.6381 29.0748 40.7198 29.0748C40.8016 29.0748 40.856 29.0187 40.856 28.9346C40.8833 28.8785 40.8016 28.7944 40.7198 28.7944ZM39.8755 30.3084C39.7665 30.3084 39.6848 30.3925 39.6848 30.5047C39.6848 30.6168 39.7665 30.7009 39.8755 30.7009C39.9844 30.7009 40.0661 30.6168 40.0661 30.5047C40.0661 30.3925 39.9844 30.3084 39.8755 30.3084ZM38.8677 31.7103C38.7315 31.7103 38.6226 31.8224 38.6226 31.9626C38.6226 32.1028 38.7315 32.215 38.8677 32.215C39.0039 32.215 39.1128 32.1028 39.1128 31.9626C39.1128 31.8224 39.0039 31.7103 38.8677 31.7103ZM37.7237 33C37.5603 33 37.4514 33.1402 37.4514 33.2804C37.4514 33.4486 37.5875 33.5607 37.7237 33.5607C37.8872 33.5607 37.9961 33.4206 37.9961 33.2804C38.0233 33.1402 37.8872 33 37.7237 33ZM36.4436 34.1776C36.2529 34.1776 36.1167 34.3178 36.1167 34.514C36.1167 34.7103 36.2529 34.8505 36.4436 34.8505C36.6342 34.8505 36.7704 34.7103 36.7704 34.514C36.7704 34.3178 36.6342 34.1776 36.4436 34.1776ZM35.0545 35.1589C34.8366 35.1589 34.6731 35.3271 34.6731 35.5514C34.6731 35.7757 34.8366 35.9439 35.0545 35.9439C35.2724 35.9439 35.4358 35.7757 35.4358 35.5514C35.4358 35.3551 35.2724 35.1589 35.0545 35.1589ZM33.5292 36C33.284 36 33.0934 36.1963 33.0934 36.4486C33.0934 36.7009 33.284 36.8972 33.5292 36.8972C33.7743 36.8972 33.965 36.7009 33.965 36.4486C33.965 36.1963 33.7743 36 33.5292 36ZM31.9222 36.5888C31.6498 36.5888 31.4591 36.8131 31.4591 37.0654C31.4591 37.3458 31.677 37.5421 31.9222 37.5421C32.1946 37.5421 32.3852 37.3178 32.3852 37.0654C32.3852 36.8131 32.1946 36.5888 31.9222 36.5888ZM30.2335 36.9813C29.9339 36.9813 29.716 37.2336 29.716 37.514C29.716 37.8224 29.9611 38.0467 30.2335 38.0467C30.5331 38.0467 30.751 37.7944 30.751 37.514C30.751 37.2336 30.5331 36.9813 30.2335 36.9813ZM28.5175 37.1215C28.1907 37.1215 27.9455 37.3738 27.9455 37.7103C27.9455 38.0187 28.1907 38.2991 28.5175 38.2991C28.8444 38.2991 29.0895 38.0467 29.0895 37.7103C29.0895 37.4019 28.8444 37.1215 28.5175 37.1215ZM27.4008 37.6822C27.4008 37.3458 27.1284 37.0374 26.7743 37.0374C26.4475 37.0374 26.1751 37.3178 26.1751 37.6822C26.1751 38.0187 26.4475 38.3271 26.7743 38.3271C27.1284 38.3271 27.4008 38.0467 27.4008 37.6822ZM25.7393 37.4299C25.7393 37.0654 25.4397 36.757 25.0856 36.757C24.7315 36.757 24.4319 37.0654 24.4319 37.4299C24.4319 37.7944 24.7315 38.1028 25.0856 38.1028C25.4397 38.1028 25.7393 37.7944 25.7393 37.4299ZM24.1051 36.9252C24.1051 36.5327 23.7782 36.1963 23.3969 36.1963C23.0156 36.1963 22.6887 36.5327 22.6887 36.9252C22.6887 37.3178 23.0156 37.6542 23.3969 37.6542C23.8054 37.6542 24.1051 37.3178 24.1051 36.9252ZM22.5798 36.2243C22.5798 35.8037 22.2529 35.4393 21.8171 35.4393C21.4086 35.4393 21.0545 35.7757 21.0545 36.2243C21.0545 36.6449 21.3813 37.0093 21.8171 37.0093C22.2257 36.9813 22.5798 36.6449 22.5798 36.2243ZM37.9416 12.5047C37.9689 12.5047 37.9961 12.4766 37.9961 12.4486C37.9961 12.4206 37.9689 12.3925 37.9416 12.3925C37.9144 12.3925 37.8872 12.4206 37.8872 12.4486C37.8872 12.4766 37.9144 12.5047 37.9416 12.5047ZM38.7315 14.1308C38.786 14.1308 38.8132 14.0748 38.8132 14.0467C38.8132 13.9907 38.7588 13.9626 38.7315 13.9626C38.677 13.9626 38.6498 14.0187 38.6498 14.0467C38.6498 14.0748 38.677 14.1308 38.7315 14.1308ZM39.3852 15.8411C39.4669 15.8411 39.5214 15.785 39.5214 15.7009C39.5214 15.6168 39.4669 15.5607 39.3852 15.5607C39.3035 15.5607 39.249 15.6168 39.249 15.7009C39.249 15.757 39.3035 15.8411 39.3852 15.8411ZM39.8482 17.6075C39.9572 17.6075 40.0389 17.5234 40.0389 17.4112C40.0389 17.2991 39.9572 17.215 39.8482 17.215C39.7393 17.215 39.6576 17.2991 39.6576 17.4112C39.6576 17.5234 39.7393 17.6075 39.8482 17.6075ZM39.9027 19.1776C39.9027 19.3178 40.0117 19.4299 40.1479 19.4299C40.284 19.4299 40.393 19.3178 40.393 19.1776C40.393 19.0374 40.284 18.9252 40.1479 18.9252C40.0117 18.9252 39.9027 19.0374 39.9027 19.1776ZM40.2296 20.6636C40.0661 20.6636 39.9572 20.8037 39.9572 20.9439C39.9572 21.1122 40.0934 21.2243 40.2296 21.2243C40.393 21.2243 40.5019 21.0841 40.5019 20.9439C40.5292 20.7757 40.393 20.6636 40.2296 20.6636ZM40.1751 22.4019C39.9844 22.4019 39.8482 22.5421 39.8482 22.7383C39.8482 22.9346 39.9844 23.0748 40.1751 23.0748C40.3658 23.0748 40.5019 22.9346 40.5019 22.7383C40.5019 22.5421 40.3385 22.4019 40.1751 22.4019ZM39.9027 24.1122C39.6848 24.1122 39.5214 24.2804 39.5214 24.5047C39.5214 24.729 39.6848 24.8972 39.9027 24.8972C40.1206 24.8972 40.284 24.729 40.284 24.5047C40.284 24.2804 40.1206 24.1122 39.9027 24.1122ZM39.8482 26.215C39.8482 25.9626 39.6576 25.7664 39.4124 25.7664C39.1673 25.7664 38.9767 25.9626 38.9767 26.215C38.9767 26.4673 39.1673 26.6636 39.4124 26.6636C39.6576 26.6636 39.8482 26.4673 39.8482 26.215ZM38.7315 27.3645C38.4591 27.3645 38.2685 27.5888 38.2685 27.8411C38.2685 28.1215 38.4864 28.3178 38.7315 28.3178C39.0039 28.3178 39.1945 28.0935 39.1945 27.8411C39.2218 27.5888 39.0039 27.3645 38.7315 27.3645ZM37.8599 28.8505C37.5603 28.8505 37.3424 29.1028 37.3424 29.3832C37.3424 29.6916 37.5875 29.9159 37.8599 29.9159C38.1595 29.9159 38.3774 29.6636 38.3774 29.3832C38.3774 29.0748 38.1323 28.8505 37.8599 28.8505ZM36.7704 30.1963C36.4708 30.1963 36.1984 30.4486 36.1984 30.785C36.1984 31.1215 36.4436 31.3738 36.7704 31.3738C37.0973 31.3738 37.3424 31.1215 37.3424 30.785C37.3424 30.4486 37.07 30.1963 36.7704 30.1963ZM35.5175 31.3738C35.1907 31.3738 34.8911 31.6542 34.8911 32.0187C34.8911 32.3551 35.1634 32.6636 35.5175 32.6636C35.8444 32.6636 36.144 32.3832 36.144 32.0187C36.144 31.6542 35.8716 31.3738 35.5175 31.3738ZM34.1284 32.3832C33.7743 32.3832 33.4747 32.6916 33.4747 33.0561C33.4747 33.4206 33.7743 33.729 34.1284 33.729C34.4825 33.729 34.7821 33.4206 34.7821 33.0561C34.7821 32.6916 34.4825 32.3832 34.1284 32.3832ZM32.6031 33.1963C32.2218 33.1963 31.8949 33.5327 31.8949 33.9252C31.8949 34.3178 32.2218 34.6542 32.6031 34.6542C32.9844 34.6542 33.3113 34.3178 33.3113 33.9252C33.3113 33.5327 33.0117 33.1963 32.6031 33.1963ZM30.9961 33.8131C30.5875 33.8131 30.2335 34.1495 30.2335 34.5981C30.2335 35.0187 30.5603 35.3832 30.9961 35.3832C31.4047 35.3832 31.7588 35.0467 31.7588 34.5981C31.7588 34.1776 31.4047 33.8131 30.9961 33.8131ZM26.0661 6.11215C26.0934 6.11215 26.1206 6.08411 26.1206 6.05607C26.1206 6.02804 26.0934 6 26.0661 6C26.0389 6 26.0117 6.02804 26.0117 6.05607C26.0117 6.08411 26.0389 6.11215 26.0661 6.11215ZM27.7276 6.6729C27.7821 6.6729 27.8093 6.61682 27.8093 6.58879C27.8093 6.53271 27.7549 6.50467 27.7276 6.50467C27.6732 6.50467 27.6187 6.56075 27.6187 6.58879C27.6187 6.64486 27.6732 6.6729 27.7276 6.6729ZM29.3074 7.42991C29.3891 7.42991 29.4436 7.37383 29.4436 7.28972C29.4436 7.20561 29.3891 7.14953 29.3074 7.14953C29.2257 7.14953 29.1712 7.20561 29.1712 7.28972C29.1712 7.37383 29.2257 7.42991 29.3074 7.42991ZM30.8327 8.35514C30.9416 8.35514 31.0233 8.27103 31.0233 8.15888C31.0233 8.04673 30.9416 7.96262 30.8327 7.96262C30.7237 7.96262 30.642 8.04673 30.642 8.15888C30.642 8.27103 30.7237 8.35514 30.8327 8.35514ZM32.249 9.4486C32.3852 9.4486 32.4942 9.33645 32.4942 9.19626C32.4942 9.05607 32.3852 8.94393 32.249 8.94393C32.1128 8.94393 32.0039 9.05607 32.0039 9.19626C32.0039 9.33645 32.1128 9.4486 32.249 9.4486ZM33.5292 10.6822C33.6926 10.6822 33.8016 10.5421 33.8016 10.4019C33.8016 10.2336 33.6654 10.1215 33.5292 10.1215C33.3658 10.1215 33.2568 10.2617 33.2568 10.4019C33.2568 10.5421 33.393 10.6822 33.5292 10.6822ZM34.7004 12.028C34.891 12.028 35.0272 11.8879 35.0272 11.6916C35.0272 11.4953 34.891 11.3551 34.7004 11.3551C34.5097 11.3551 34.3735 11.4953 34.3735 11.6916C34.3735 11.8879 34.537 12.028 34.7004 12.028ZM35.7354 13.514C35.9533 13.514 36.1167 13.3458 36.1167 13.1215C36.1167 12.8972 35.9533 12.729 35.7354 12.729C35.5175 12.729 35.3541 12.8972 35.3541 13.1215C35.3541 13.3458 35.5175 13.514 35.7354 13.514ZM36.5798 15.1402C36.8249 15.1402 37.0156 14.9439 37.0156 14.6916C37.0156 14.4393 36.8249 14.243 36.5798 14.243C36.3346 14.243 36.144 14.4393 36.144 14.6916C36.144 14.9439 36.3346 15.1402 36.5798 15.1402ZM36.7432 16.3458C36.7432 16.6262 36.9611 16.8224 37.2062 16.8224C37.4786 16.8224 37.6693 16.5981 37.6693 16.3458C37.6693 16.0654 37.4514 15.8692 37.2062 15.8692C36.9611 15.8692 36.7432 16.0935 36.7432 16.3458ZM37.1245 18.0841C37.1245 18.3925 37.3696 18.6168 37.642 18.6168C37.9144 18.6168 38.1595 18.3645 38.1595 18.0841C38.1595 17.7757 37.9144 17.5514 37.642 17.5514C37.3424 17.5514 37.1245 17.8037 37.1245 18.0841ZM37.2607 19.8505C37.2607 20.1869 37.5058 20.4393 37.8327 20.4393C38.1595 20.4393 38.4047 20.1869 38.4047 19.8505C38.4047 19.514 38.1595 19.2617 37.8327 19.2617C37.5331 19.2897 37.2607 19.5421 37.2607 19.8505ZM38.4047 21.6449C38.4047 21.3084 38.1323 21 37.7782 21C37.4514 21 37.1517 21.2804 37.1517 21.6449C37.1517 21.9813 37.4241 22.2897 37.7782 22.2897C38.1323 22.2897 38.4047 22.0093 38.4047 21.6449ZM38.214 23.4112C38.214 23.0467 37.9144 22.7383 37.5603 22.7383C37.2062 22.7383 36.9066 23.0467 36.9066 23.4112C36.9066 23.7757 37.2062 24.0841 37.5603 24.0841C37.9144 24.0841 38.214 23.7757 38.214 23.4112ZM37.7782 25.1215C37.7782 24.729 37.4514 24.3925 37.07 24.3925C36.6887 24.3925 36.3619 24.729 36.3619 25.1215C36.3619 25.514 36.6887 25.8505 37.07 25.8505C37.4514 25.8505 37.7782 25.5421 37.7782 25.1215ZM36.3619 25.9907C35.9533 25.9907 35.5992 26.3271 35.5992 26.7757C35.5992 27.1963 35.9261 27.5607 36.3619 27.5607C36.7704 27.5607 37.1245 27.2243 37.1245 26.7757C37.1245 26.3271 36.7977 25.9907 36.3619 25.9907ZM13.2918 10.2336C13.3191 10.2336 13.3463 10.2056 13.3463 10.1776C13.3463 10.1495 13.3191 10.1215 13.2918 10.1215C13.2646 10.1215 13.2374 10.1495 13.2374 10.1776C13.2374 10.2056 13.2646 10.2336 13.2918 10.2336ZM14.8171 9.4486C14.8716 9.4486 14.9261 9.39252 14.9261 9.36449C14.9261 9.30841 14.8716 9.28037 14.8171 9.28037C14.7626 9.28037 14.7354 9.33645 14.7354 9.36449C14.7354 9.39252 14.7626 9.4486 14.8171 9.4486ZM16.4241 8.83178C16.5058 8.83178 16.5603 8.7757 16.5603 8.69159C16.5603 8.60748 16.5058 8.5514 16.4241 8.5514C16.3424 8.5514 16.2879 8.60748 16.2879 8.69159C16.2879 8.7757 16.3424 8.83178 16.4241 8.83178ZM18.1128 8.41122C18.2218 8.41122 18.3035 8.3271 18.3035 8.21495C18.3035 8.1028 18.2218 8.01869 18.1128 8.01869C18.0039 8.01869 17.9222 8.1028 17.9222 8.21495C17.9222 8.29907 18.0039 8.41122 18.1128 8.41122ZM19.8016 8.15888C19.9377 8.15888 20.0467 8.04673 20.0467 7.90654C20.0467 7.76636 19.9377 7.65421 19.8016 7.65421C19.6654 7.65421 19.5564 7.76636 19.5564 7.90654C19.5837 8.04673 19.6926 8.15888 19.8016 8.15888ZM21.5447 8.07477C21.7082 8.07477 21.8171 7.93458 21.8171 7.79439C21.8171 7.62617 21.6809 7.51402 21.5447 7.51402C21.3813 7.51402 21.2724 7.65421 21.2724 7.79439C21.2451 7.96262 21.3813 8.07477 21.5447 8.07477ZM23.2879 8.21495C23.4786 8.21495 23.6148 8.07477 23.6148 7.8785C23.6148 7.68224 23.4786 7.54206 23.2879 7.54206C23.0973 7.54206 22.9611 7.68224 22.9611 7.8785C22.9339 8.07477 23.0973 8.21495 23.2879 8.21495ZM24.9767 8.52336C25.1946 8.52336 25.358 8.35514 25.358 8.13084C25.358 7.90654 25.1946 7.73832 24.9767 7.73832C24.7588 7.73832 24.5953 7.90654 24.5953 8.13084C24.6226 8.35514 24.786 8.52336 24.9767 8.52336ZM26.6654 9.05607C26.9105 9.05607 27.1012 8.85981 27.1012 8.60748C27.1012 8.35514 26.9105 8.15888 26.6654 8.15888C26.4202 8.15888 26.2296 8.35514 26.2296 8.60748C26.2296 8.85981 26.4202 9.05607 26.6654 9.05607ZM28.2451 9.81308C28.5175 9.81308 28.7082 9.58879 28.7082 9.33645C28.7082 9.05607 28.4903 8.85981 28.2451 8.85981C27.9728 8.85981 27.7821 9.08411 27.7821 9.33645C27.7821 9.61682 28 9.81308 28.2451 9.81308ZM29.2257 10.2617C29.2257 10.5701 29.4708 10.7944 29.7432 10.7944C30.0428 10.7944 30.2607 10.5421 30.2607 10.2617C30.2607 9.95327 30.0156 9.72897 29.7432 9.72897C29.4436 9.72897 29.2257 9.95327 29.2257 10.2617ZM31.0778 11.9439C31.3774 11.9439 31.6498 11.6916 31.6498 11.3551C31.6498 11.0467 31.4047 10.7664 31.0778 10.7664C30.751 10.7664 30.5058 11.0187 30.5058 11.3551C30.5331 11.6916 30.7782 11.9439 31.0778 11.9439ZM32.3035 13.2897C32.6304 13.2897 32.93 13.0093 32.93 12.6449C32.93 12.3084 32.6576 12 32.3035 12C31.9767 12 31.677 12.2804 31.677 12.6449C31.677 13.0093 31.9494 13.2897 32.3035 13.2897ZM33.3113 13.4019C32.9572 13.4019 32.6576 13.7103 32.6576 14.0748C32.6576 14.4393 32.9572 14.7477 33.3113 14.7477C33.6654 14.7477 33.965 14.4393 33.965 14.0748C33.9922 13.7103 33.6926 13.4019 33.3113 13.4019ZM33.4475 15.6449C33.4475 16.0374 33.7743 16.3738 34.1556 16.3738C34.537 16.3738 34.8638 16.0374 34.8638 15.6449C34.8638 15.2523 34.537 14.9159 34.1556 14.9159C33.7743 14.9159 33.4475 15.2523 33.4475 15.6449ZM34.0467 17.2991C34.0467 17.7196 34.3735 18.0841 34.8093 18.0841C35.2179 18.0841 35.572 17.7477 35.572 17.2991C35.572 16.8785 35.2451 16.514 34.8093 16.514C34.3735 16.5421 34.0467 16.8785 34.0467 17.2991ZM35.2179 18.2243C34.7821 18.2243 34.428 18.5888 34.428 19.0654C34.428 19.514 34.7821 19.8785 35.2179 19.8785C35.6537 19.8785 36.0078 19.514 36.0078 19.0654C36.0078 18.5888 35.6537 18.2243 35.2179 18.2243ZM7.08171 22.2897C7.02724 22.2897 7 22.3178 7 22.3738C7 22.4299 7.05447 22.4579 7.08171 22.4579C7.13619 22.4579 7.16342 22.4299 7.16342 22.3738C7.16342 22.3458 7.13619 22.2897 7.08171 22.2897ZM7.59922 20.4953C7.49027 20.4953 7.40856 20.5794 7.40856 20.6916C7.40856 20.8037 7.49027 20.8879 7.59922 20.8879C7.70817 20.8879 7.78988 20.8037 7.78988 20.6916C7.76265 20.5794 7.68093 20.4953 7.59922 20.4953ZM8.55253 19.0374C8.55253 18.8972 8.44358 18.757 8.28016 18.757C8.14397 18.757 8.00778 18.8692 8.00778 19.0374C8.00778 19.1776 8.11673 19.3178 8.28016 19.3178C8.41634 19.3178 8.55253 19.2056 8.55253 19.0374ZM9.12451 17.8598C9.31518 17.8598 9.4786 17.6916 9.4786 17.4953C9.4786 17.2991 9.31518 17.1308 9.12451 17.1308C8.93385 17.1308 8.77043 17.2991 8.77043 17.4953C8.77043 17.6916 8.93385 17.8598 9.12451 17.8598ZM10.1323 16.486C10.3774 16.486 10.5681 16.2897 10.5681 16.0374C10.5681 15.785 10.3774 15.5888 10.1323 15.5888C9.88716 15.5888 9.6965 15.785 9.6965 16.0374C9.6965 16.2897 9.88716 16.486 10.1323 16.486ZM11.2763 15.2523C11.5759 15.2523 11.821 15 11.821 14.6916C11.821 14.3832 11.5759 14.1308 11.2763 14.1308C10.9767 14.1308 10.7315 14.3832 10.7315 14.6916C10.7588 15 10.9767 15.2523 11.2763 15.2523ZM12.5564 14.1308C12.9105 14.1308 13.1829 13.8505 13.1829 13.486C13.1829 13.1215 12.9105 12.8411 12.5564 12.8411C12.2023 12.8411 11.93 13.1215 11.93 13.486C11.93 13.8505 12.2023 14.1308 12.5564 14.1308ZM13.9455 13.1776C14.3541 13.1776 14.6537 12.8411 14.6537 12.4486C14.6537 12.0561 14.3268 11.7196 13.9455 11.7196C13.5642 11.7196 13.2374 12.0561 13.2374 12.4486C13.2374 12.8411 13.5642 13.1776 13.9455 13.1776ZM15.4708 12.3645C15.9066 12.3645 16.2607 12 16.2607 11.5514C16.2607 11.1028 15.9066 10.7383 15.4708 10.7383C15.035 10.7383 14.6809 11.1028 14.6809 11.5514C14.6537 12 15.0078 12.3645 15.4708 12.3645Z" fill="#7BCC54"/>
<path d="M16.7671 11.6438C17.2055 11.6438 17.589 11.3062 17.6438 10.8562C17.8082 11.1094 18.1096 11.2781 18.4384 11.2781C18.8219 11.2781 19.1507 11.0531 19.3151 10.7437C19.5068 10.9969 19.8356 11.1938 20.1644 11.1938C20.4932 11.1938 20.7671 11.0531 20.9589 10.8281C21.1781 11.1375 21.5068 11.3344 21.9178 11.3344C22.1644 11.3344 22.3836 11.25 22.5753 11.1094C22.6301 11.1937 22.6575 11.25 22.7123 11.3062C22.411 11.3344 22.1644 11.475 21.9452 11.6719C21.726 11.475 21.4247 11.3344 21.0959 11.3344C20.6849 11.3344 20.3288 11.5312 20.0822 11.8687C19.8904 11.7 19.6438 11.6156 19.3699 11.6156C18.9041 11.6156 18.4931 11.8969 18.3014 12.3188C18.1644 12.1781 17.9452 12.0937 17.6986 12.0937C17.1781 12.0937 16.7397 12.4594 16.6301 12.9656C16.4658 12.8531 16.274 12.7969 16.0822 12.7969C15.5068 12.7969 15.0411 13.275 15.0411 13.8656C14.9041 13.7812 14.7397 13.725 14.5479 13.725C14 13.725 13.589 14.175 13.589 14.7094C13.589 14.7937 13.6164 14.9062 13.6164 14.9906C13.4795 14.9062 13.3151 14.85 13.1507 14.85C12.6575 14.85 12.2466 15.2719 12.2466 15.7781C12.2466 16.2844 12.6575 16.7063 13.1507 16.7063C13.6438 16.7063 14.0548 16.2844 14.0548 15.7781C14.0548 15.6938 14.0548 15.6094 14.0274 15.5531C14.1918 15.6656 14.3562 15.7219 14.5479 15.7219C15.0685 15.7219 15.5068 15.3 15.5068 14.7656C15.6712 14.8781 15.863 14.9344 16.0548 14.9344H16.1096C15.8904 15.1313 15.7534 15.4125 15.726 15.75C15.6438 15.75 15.589 15.7219 15.5068 15.7219C14.8767 15.7219 14.3562 16.2563 14.3562 16.9031V17.0438H14.2192C13.6164 17.0438 13.1507 17.55 13.1507 18.1406C13.1507 18.2531 13.1781 18.3938 13.2055 18.5062H13.1507C12.5753 18.5062 12.137 18.9844 12.137 19.5469C12.137 19.7437 12.1918 19.9406 12.3014 20.0813H12.274C11.7534 20.0813 11.3151 20.5312 11.3151 21.0656C11.3151 21.3469 11.4247 21.6 11.6164 21.7969H11.589C11.0959 21.7969 10.6849 22.2188 10.6849 22.725C10.6849 23.2312 11.0959 23.6531 11.589 23.6531C12.0822 23.6531 12.4932 23.2312 12.4932 22.725C12.4932 22.4719 12.3836 22.2469 12.2192 22.0781H12.274C12.5479 22.0781 12.7945 21.9656 12.9863 21.7688V21.7969C12.9863 22.05 13.0685 22.275 13.2055 22.4719C12.7945 22.6125 12.4932 23.0344 12.4932 23.4844C12.4932 23.8219 12.6301 24.1031 12.8767 24.3C12.5205 24.4687 12.3014 24.8344 12.3014 25.2281C12.3014 25.6219 12.5205 25.9594 12.8493 26.1563C12.5479 26.325 12.3288 26.6344 12.3288 27.0281C12.3288 27.5063 12.6575 27.8719 13.0685 27.9844C12.7671 28.125 12.5753 28.4344 12.5753 28.8C12.5753 29.3062 12.9863 29.7281 13.4795 29.7281C13.5342 29.7281 13.589 29.7281 13.6438 29.7C13.2877 29.8125 13.0411 30.15 13.0411 30.5156C13.0411 30.9937 13.4247 31.3875 13.8904 31.3875C14.3562 31.3875 14.7397 30.9937 14.7397 30.5156C14.7397 30.0375 14.3562 29.6437 13.8904 29.6437C13.8356 29.6437 13.7808 29.6437 13.726 29.6719C14.0822 29.5594 14.3562 29.1937 14.3562 28.8V28.7437C14.4932 28.9125 14.6849 29.025 14.8767 29.0531C14.7397 29.2219 14.6301 29.475 14.6301 29.7281C14.6301 30.2906 15.0685 30.7406 15.6164 30.7406H15.6438C15.5342 30.9094 15.4521 31.1062 15.4521 31.3031C15.4521 31.8375 15.8904 32.2875 16.411 32.2875C16.5205 32.2875 16.6027 32.2594 16.6849 32.2594C16.6027 32.4 16.5479 32.5688 16.5479 32.7656C16.5479 33.2719 16.9589 33.6937 17.4521 33.6937C17.6712 33.6937 17.863 33.6094 18 33.4969C17.863 33.6375 17.7808 33.8625 17.7808 34.0594C17.7808 34.5375 18.1644 34.9312 18.6301 34.9312C19.0959 34.9312 19.4795 34.5375 19.4795 34.0594C19.4795 33.8344 19.3973 33.6094 19.2329 33.4688C19.3425 33.4688 19.4521 33.4406 19.5616 33.4125C19.5616 33.8344 19.7808 34.2 20.137 34.3687C20.0822 34.3687 20.0274 34.3406 19.9726 34.3406C19.5342 34.3406 19.1781 34.7062 19.1781 35.1562C19.1781 35.6063 19.5342 36 19.9726 36C20.411 36 20.7945 35.6344 20.7945 35.1562C20.7945 34.8469 20.6301 34.5656 20.3562 34.425C20.4384 34.4531 20.5205 34.4531 20.6027 34.4531C20.7945 34.4531 20.9863 34.3969 21.1507 34.2844C21.2055 34.8187 21.6164 35.2125 22.137 35.2125C22.411 35.2125 22.6849 35.1 22.8493 34.9031C22.9315 35.3813 23.3151 35.7188 23.7808 35.7188C24.137 35.7188 24.4658 35.5219 24.6301 35.2125C24.7123 35.6344 25.0685 35.9437 25.5068 35.9437C25.9726 35.9437 26.3562 35.5781 26.411 35.1281C26.4384 35.5781 26.7945 35.9437 27.2603 35.9437C27.726 35.9437 28.1096 35.55 28.1096 35.0719C28.1096 34.5938 27.726 34.2 27.2877 34.2C27.3699 34.1156 27.4247 34.0312 27.4795 33.9187C27.6712 34.1156 27.9452 34.2562 28.2192 34.2562C28.3288 34.2562 28.4384 34.2281 28.5479 34.2C28.3288 34.3406 28.1918 34.5938 28.1918 34.875C28.1918 35.325 28.5479 35.7188 29.0137 35.7188C29.4521 35.7188 29.8082 35.3531 29.8082 34.875C29.8082 34.425 29.4521 34.0594 29.0137 34.0594C28.9315 34.0594 28.8493 34.0875 28.7945 34.0875C29.0411 33.9469 29.2055 33.6937 29.2603 33.4125C29.4247 33.5531 29.6712 33.6656 29.8904 33.6656C30.4384 33.6656 30.9041 33.2156 30.9041 32.6531V32.625C31.0685 32.7375 31.2603 32.8219 31.4521 32.8219C31.9726 32.8219 32.411 32.3719 32.411 31.8375C32.411 31.725 32.411 31.6406 32.3562 31.5562C32.4932 31.6406 32.6575 31.725 32.8493 31.725C33.3425 31.725 33.7534 31.3031 33.7534 30.7969C33.7534 30.5719 33.6712 30.375 33.5616 30.2344C33.6986 30.375 33.8904 30.4594 34.1096 30.4594C34.5753 30.4594 34.9589 30.0656 34.9589 29.5875C34.9589 29.1094 34.5753 28.7156 34.1096 28.7156C33.8904 28.7156 33.6712 28.8 33.5068 28.9688C33.5068 28.8563 33.4795 28.7437 33.4521 28.6312C33.863 28.6312 34.2192 28.4062 34.3836 28.0406C34.3836 28.0969 34.3562 28.1531 34.3562 28.2094C34.3562 28.6594 34.7123 29.025 35.1781 29.025C35.6164 29.025 36 28.6594 36 28.2094C36 27.7594 35.6438 27.3937 35.1781 27.3937C34.8767 27.3937 34.6027 27.5625 34.4658 27.8438C34.4932 27.7594 34.4931 27.675 34.4931 27.5906C34.4931 27.3937 34.4384 27.1969 34.3288 27.0281C34.8493 27 35.2329 26.55 35.2329 26.0156C35.2329 25.7344 35.1233 25.4531 34.9315 25.2844C35.3973 25.2 35.726 24.8063 35.726 24.3281C35.726 23.9625 35.5342 23.625 35.2329 23.4563C35.6438 23.3719 35.9452 23.0063 35.9452 22.5563C35.9452 22.0781 35.589 21.6844 35.1233 21.6281C35.5616 21.6 35.9178 21.2063 35.9178 20.7562C35.9178 20.2781 35.5342 19.8844 35.0685 19.8844C34.6027 19.8844 34.2192 20.2781 34.2192 20.7562C34.2192 21.2063 34.5479 21.5719 34.9863 21.6281C34.5205 21.6562 34.137 22.05 34.137 22.5563C34.137 22.8938 34.3288 23.2031 34.6027 23.3719C34.1644 23.4563 33.8082 23.85 33.8082 24.3281C33.8082 24.6094 33.9178 24.8344 34.0822 25.0031C33.589 25.0594 33.2055 25.5094 33.2055 26.0156C33.2055 26.2125 33.2603 26.3813 33.3425 26.5219C32.7945 26.55 32.3562 27.0281 32.3562 27.5906C32.3562 27.7031 32.3836 27.8156 32.411 27.9H32.3562C31.7534 27.9 31.2603 28.4062 31.2603 29.025V29.1094C31.2055 29.1094 31.1507 29.0812 31.0959 29.0812C30.5205 29.0812 30.0548 29.5312 29.9726 30.0938C29.863 30.0656 29.7808 30.0375 29.6712 30.0375C29.2055 30.0375 28.7945 30.3187 28.6027 30.7406C28.3562 30.5437 28.0548 30.4594 27.7534 30.5156C27.3973 30.5719 27.1233 30.825 26.9863 31.1344C26.7671 30.8812 26.4384 30.7406 26.0822 30.7969C25.726 30.8531 25.4521 31.05 25.3151 31.3594C25.1233 31.1063 24.8219 30.9656 24.4931 30.9656C24.1918 30.9656 23.9178 31.1062 23.726 31.3031C23.6164 31.0219 23.3699 30.7969 23.0685 30.7125C22.7397 30.6 22.411 30.6844 22.1644 30.8531C22.0822 30.5437 21.8904 30.2625 21.589 30.1219C21.2877 29.9812 20.9863 29.9812 20.7123 30.1219C20.7123 29.8125 20.5753 29.5312 20.3288 29.3062C20.0822 29.1094 19.7808 29.0531 19.5068 29.0812C19.589 28.7719 19.5068 28.4625 19.3151 28.1812C19.1233 27.9 18.7945 27.7594 18.4932 27.7594C18.6027 27.4781 18.6027 27.1406 18.4658 26.8312C18.3288 26.55 18.0822 26.3813 17.8082 26.2969C17.9726 26.0719 18.0548 25.7625 18 25.4813C17.9452 25.1438 17.7534 24.8625 17.4795 24.7219C17.726 24.525 17.8904 24.2156 17.8904 23.85C17.8904 23.5406 17.7534 23.2594 17.5342 23.0625C17.8082 22.9219 18 22.6687 18.0822 22.3594C18.1644 22.05 18.0822 21.7406 17.9178 21.4875C18.1918 21.4313 18.4384 21.2344 18.6027 20.9813C18.7671 20.7 18.7945 20.3625 18.6849 20.0813C18.9863 20.1094 19.2877 19.9688 19.5068 19.7156C19.726 19.4625 19.8082 19.1531 19.7534 18.8438C20.0274 18.9281 20.3562 18.8719 20.6027 18.675C20.8767 18.4781 21.0137 18.1969 21.0411 17.8875C21.3151 18.0281 21.6438 18.0563 21.9452 17.9156C22.2192 17.8031 22.4384 17.55 22.5205 17.2969C22.7397 17.4937 23.0137 17.6062 23.3151 17.5781C23.6438 17.55 23.9452 17.3531 24.1096 17.0719C24.274 17.325 24.5753 17.4937 24.8767 17.5219C25.1781 17.55 25.4795 17.4375 25.6712 17.2125C25.7808 17.4938 26 17.7188 26.3288 17.8313C26.6301 17.9438 26.9863 17.8875 27.2329 17.7188C27.2877 18.0281 27.4795 18.3094 27.7534 18.4781C28 18.6188 28.2466 18.6469 28.4932 18.5906C28.5205 18.6188 28.5479 18.675 28.5753 18.7031C28.5753 18.9281 28.6849 19.1531 28.8493 19.35L28.8767 19.3781C29.3973 19.9406 30.6575 21.3469 30.411 23.2031C30.3562 23.6812 30.6027 23.9062 30.9315 23.5406C32.9041 21.375 32.6027 18.675 32.5479 18.3656C32.5479 18.1687 32.4932 17.9719 32.411 17.775C32.4384 17.6625 32.4384 17.55 32.4384 17.4375C32.4384 16.875 32.1644 16.3688 31.7808 16.0594C31.8082 15.9469 31.8082 15.8625 31.8082 15.75C31.8082 15.0469 31.3973 14.4563 30.7945 14.2031C30.7671 13.4156 30.2192 12.7969 29.4795 12.6562C29.3425 11.9531 28.7671 11.4187 28.0274 11.4187H27.9452C27.7534 10.8562 27.2329 10.4344 26.6301 10.4344C26.5205 10.4344 26.3836 10.4625 26.274 10.4906C26.0548 10.0125 25.6164 9.70312 25.0685 9.70312C24.8493 9.70312 24.6575 9.75937 24.4931 9.84375C24.274 9.47813 23.8904 9.225 23.4247 9.225C23.1233 9.225 22.8767 9.3375 22.6575 9.50625C22.4384 9.19688 22.1096 9 21.726 9C21.3699 9 21.0411 9.16875 20.8219 9.45C20.6301 9.19687 20.3288 9.02812 19.9726 9.02812C19.5342 9.02812 19.1507 9.28125 18.9863 9.675C18.7945 9.45 18.5479 9.30937 18.2192 9.30937C17.6986 9.30937 17.2877 9.70313 17.2329 10.2094C17.0685 9.98438 16.8219 9.84375 16.5205 9.84375C16.0274 9.84375 15.6164 10.2656 15.6164 10.7719C15.863 11.2219 16.274 11.6438 16.7671 11.6438ZM10.7397 35.3812C10.7123 35.3812 10.6849 35.4094 10.6849 35.4656C10.6849 35.4937 10.7123 35.55 10.7397 35.55C10.7671 35.55 10.8219 35.5219 10.8219 35.4656C10.7945 35.4094 10.7671 35.3812 10.7397 35.3812ZM9.91781 33.7219C9.83562 33.7219 9.78082 33.7781 9.78082 33.8625C9.78082 33.9469 9.83562 34.0031 9.91781 34.0031C10 34.0031 10.0548 33.9469 10.0548 33.8625C10.0548 33.8062 10 33.7219 9.91781 33.7219ZM9.28767 32.0062C9.17808 32.0062 9.06849 32.0906 9.06849 32.2312C9.06849 32.3438 9.15068 32.4562 9.28767 32.4562C9.39726 32.4562 9.50685 32.3719 9.50685 32.2312C9.47945 32.0906 9.39726 32.0062 9.28767 32.0062ZM8.79452 30.2062C8.63014 30.2062 8.52055 30.3469 8.52055 30.4875C8.52055 30.6562 8.63014 30.7687 8.79452 30.7687C8.9589 30.7687 9.06849 30.6562 9.06849 30.4875C9.09589 30.3187 8.9589 30.2062 8.79452 30.2062ZM8.84932 28.7156C8.84932 28.5187 8.68493 28.35 8.49315 28.35C8.30137 28.35 8.13699 28.5187 8.13699 28.7156C8.13699 28.9125 8.30137 29.0812 8.49315 29.0812C8.71233 29.0812 8.84932 28.9125 8.84932 28.7156ZM8.82192 26.9438C8.82192 26.7188 8.63014 26.5219 8.41096 26.5219C8.19178 26.5219 8 26.7188 8 26.9438C8 27.1687 8.19178 27.3656 8.41096 27.3656C8.63014 27.3656 8.82192 27.1687 8.82192 26.9438ZM8 25.1437C8 25.425 8.21918 25.65 8.49315 25.65C8.76712 25.65 8.9863 25.425 8.9863 25.1437C8.9863 24.8625 8.76712 24.6375 8.49315 24.6375C8.21918 24.6375 8 24.8625 8 25.1437ZM8.73973 23.9344C9.0411 23.9344 9.28767 23.6813 9.28767 23.3719C9.28767 23.0625 9.0411 22.8094 8.73973 22.8094C8.43836 22.8094 8.19178 23.0625 8.19178 23.3719C8.19178 23.6813 8.43836 23.9344 8.73973 23.9344ZM9.23288 21.0094C8.87671 21.0094 8.60274 21.2906 8.60274 21.6562C8.60274 22.0219 8.87671 22.3031 9.23288 22.3031C9.58904 22.3031 9.86301 22.0219 9.86301 21.6562C9.83562 21.2906 9.56164 21.0094 9.23288 21.0094ZM9.91781 20.7281C10.3014 20.7281 10.6027 20.4187 10.6027 20.025C10.6027 19.6313 10.3014 19.3219 9.91781 19.3219C9.53425 19.3219 9.23288 19.6313 9.23288 20.025C9.23288 20.3906 9.53425 20.7281 9.91781 20.7281Z" fill="#7BCC54"/>
<path d="M10.8571 19C11.3163 19 11.7143 18.6667 11.7143 18.2222C11.7143 17.8056 11.3469 17.4444 10.8571 17.4444C10.398 17.4444 10 17.7778 10 18.2222C10 18.6389 10.3673 19 10.8571 19ZM13 16.8333C13 16.3611 12.5714 16 12.0816 16C11.5612 16 11.1633 16.3889 11.1633 16.8333C11.1633 17.3056 11.5918 17.6667 12.0816 17.6667C12.5714 17.6944 13 17.3056 13 16.8333Z" fill="#7BCC54"/>
</svg>
