<svg width="376" height="253" viewBox="0 0 376 253" fill="none" xmlns="http://www.w3.org/2000/svg">
<rect x="90" y="95" width="212" height="158" rx="15" fill="#EFF9EA"/>
<path fill-rule="evenodd" clip-rule="evenodd" d="M302 106.711V115H90.812V110.221C90.812 101.936 97.5277 95.2207 105.812 95.2207H287.413C294.488 95.2207 300.42 100.12 302 106.711Z" fill="#5EC12F"/>
<path fill-rule="evenodd" clip-rule="evenodd" d="M161 119V249H107C99.8203 249 94 243.18 94 236V119H161Z" fill="white"/>
<rect x="109" y="136" width="30" height="3" rx="1.5" fill="#5EC12F"/>
<rect opacity="0.5" x="109" y="147" width="20" height="3" rx="1.5" fill="#5EC12F"/>
<rect opacity="0.5" x="109" y="157.818" width="22" height="3" rx="1.5" fill="#5EC12F"/>
<rect opacity="0.5" x="109" y="168.398" width="16" height="3" rx="1.5" fill="#5EC12F"/>
<path opacity="0.1" d="M165 119H298V236C298 243.18 292.18 249 285 249H165V119Z" fill="#5EC12F"/>
<rect opacity="0.5" x="177" y="137" width="30" height="3" rx="1.5" fill="#5EC12F"/>
<rect x="213" y="137" width="14" height="3" rx="1.5" fill="#5EC12F"/>
<rect x="219" y="153" width="14" height="3" rx="1.5" fill="#5EC12F"/>
<rect x="177" y="172" width="14" height="3" rx="1.5" fill="#5EC12F"/>
<rect x="191" y="180" width="14" height="3" rx="1.5" fill="#5EC12F"/>
<rect x="177" y="145" width="14" height="3" rx="1.5" fill="#5EC12F"/>
<rect x="247" y="137" width="14" height="3" rx="1.5" fill="#5EC12F"/>
<rect opacity="0.5" x="233" y="137" width="8" height="3" rx="1.5" fill="#5EC12F"/>
<rect opacity="0.5" x="197" y="145" width="8" height="3" rx="1.5" fill="#5EC12F"/>
<rect opacity="0.5" x="211" y="145" width="8" height="3" rx="1.5" fill="#5EC12F"/>
<rect opacity="0.5" x="177" y="153" width="8" height="3" rx="1.5" fill="#5EC12F"/>
<rect opacity="0.5" x="197" y="172" width="8" height="3" rx="1.5" fill="#5EC12F"/>
<rect opacity="0.5" x="211" y="180" width="8" height="3" rx="1.5" fill="#5EC12F"/>
<rect opacity="0.5" x="211" y="172" width="8" height="3" rx="1.5" fill="#5EC12F"/>
<rect opacity="0.5" x="177" y="180" width="8" height="3" rx="1.5" fill="#5EC12F"/>
<rect x="191" y="153" width="8" height="3" rx="1.5" fill="#5EC12F"/>
<rect opacity="0.5" x="205" y="153" width="8" height="3" rx="1.5" fill="#5EC12F"/>
<circle opacity="0.5" cx="107" cy="106" r="3" fill="white"/>
<circle opacity="0.5" cx="119" cy="106" r="3" fill="white"/>
<circle opacity="0.5" cx="131" cy="106" r="3" fill="white"/>
<path fill-rule="evenodd" clip-rule="evenodd" d="M66 0C57.7157 0 51 6.71573 51 15V37C51 45.2843 57.7157 52 66 52H94.9231L106.639 62.8792C107.919 64.0675 110 63.1599 110 61.4136L110 50.7519C115.298 48.4372 119 43.151 119 37V15C119 6.71573 112.284 0 104 0H66Z" fill="#DFF3D5"/>
<path fill-rule="evenodd" clip-rule="evenodd" d="M73 26C73 27.6569 71.6569 29 70 29C68.3431 29 67 27.6569 67 26C67 24.3431 68.3431 23 70 23C71.6569 23 73 24.3431 73 26ZM87.9954 26C87.9954 27.6569 86.6522 29 84.9954 29C83.3385 29 81.9954 27.6569 81.9954 26C81.9954 24.3431 83.3385 23 84.9954 23C86.6522 23 87.9954 24.3431 87.9954 26ZM100 29C101.657 29 103 27.6569 103 26C103 24.3431 101.657 23 100 23C98.3431 23 97 24.3431 97 26C97 27.6569 98.3431 29 100 29Z" fill="#5EC12F"/>
<path fill-rule="evenodd" clip-rule="evenodd" d="M330 151C324.477 151 320 155.477 320 161V183C320 187.838 323.436 191.873 328 192.8L328 201.414C328 203.16 330.081 204.067 331.361 202.879L342 193H366C371.523 193 376 188.523 376 183V161C376 155.477 371.523 151 366 151H330Z" fill="#DFF3D5"/>
<path fill-rule="evenodd" clip-rule="evenodd" d="M330 164.5C330 163.672 330.672 163 331.5 163H346.5C347.328 163 348 163.672 348 164.5C348 165.328 347.328 166 346.5 166H331.5C330.672 166 330 165.328 330 164.5ZM330 180.5C330 179.672 330.672 179 331.5 179H346.5C347.328 179 348 179.672 348 180.5C348 181.328 347.328 182 346.5 182H331.5C330.672 182 330 181.328 330 180.5ZM331.5 171C330.672 171 330 171.672 330 172.5C330 173.328 330.672 174 331.5 174H352.5C353.328 174 354 173.328 354 172.5C354 171.672 353.328 171 352.5 171H331.5Z" fill="#5EC12F"/>
<circle cx="25" cy="148" r="25" fill="#DFF3D5"/>
<mask id="mask0" mask-type="alpha" maskUnits="userSpaceOnUse" x="4" y="128" width="42" height="42">
<circle cx="25" cy="149" r="21" fill="#DFF3D5"/>
</mask>
<g mask="url(#mask0)">
<circle cx="19" cy="151" r="5" fill="#5EC12F"/>
<circle cx="35" cy="151" r="4" fill="#5EC12F"/>
<path d="M52 166C52 170.971 47.9925 175 36 175C24.0075 175 20 170.971 20 166C20 161.029 24.0075 157 36 157C47.9925 157 52 161.029 52 166Z" fill="#5EC12F"/>
<path d="M19 179C23.312 179 27.2611 177.837 30.1613 175.903C33.0546 173.974 35 171.2 35 168C35 164.8 33.0546 162.026 30.1613 160.097C27.2611 158.163 23.312 157 19 157C14.688 157 10.7389 158.163 7.8387 160.097C4.94545 162.026 3 164.8 3 168C3 171.2 4.94545 173.974 7.8387 175.903C10.7389 177.837 14.688 179 19 179Z" fill="#5EC12F" stroke="#DFF3D5" stroke-width="2"/>
</g>
<circle cx="284" cy="44" r="26" fill="#DFF3D5"/>
<rect width="2.69249" height="13.8414" rx="1.34624" transform="matrix(0.968571 0.248737 -0.26925 0.96307 284.309 38)" fill="#5EC12F"/>
<path fill-rule="evenodd" clip-rule="evenodd" d="M275.955 39.0145C275.428 38.5092 274.573 38.5092 274.046 39.0145L268.955 43.8937C268.639 44.1967 268.512 44.6127 268.575 45.0061C268.617 45.2688 268.744 45.5216 268.955 45.7239L274.046 50.6031C274.573 51.1084 275.428 51.1084 275.955 50.6031C276.482 50.0979 276.482 49.2787 275.955 48.7734L271.818 44.8088L275.955 40.8442C276.482 40.3389 276.482 39.5197 275.955 39.0145Z" fill="#5EC12F"/>
<path fill-rule="evenodd" clip-rule="evenodd" d="M292.044 39.0145C292.571 38.5092 293.426 38.5092 293.953 39.0145L299.044 43.8937C299.095 43.9421 299.14 43.9934 299.181 44.0471C299.567 44.5531 299.521 45.2669 299.044 45.7239L293.953 50.6031C293.426 51.1084 292.572 51.1084 292.044 50.6031C291.517 50.0979 291.517 49.2787 292.044 48.7734L296.181 44.809L292.044 40.8442C291.517 40.3389 291.517 39.5197 292.044 39.0145Z" fill="#5EC12F"/>
</svg>
