<svg width="54" height="54" viewBox="0 0 54 54" fill="none" xmlns="http://www.w3.org/2000/svg">
<path d="M47 43.75H48C48 44.1355 47.7784 44.4867 47.4304 44.6527C47.0824 44.8186 46.67 44.7697 46.3704 44.5269L47 43.75ZM41.1381 39V38C41.3673 38 41.5895 38.0787 41.7676 38.2231L41.1381 39ZM46 27C46 24.2386 43.7614 22 41 22V20C44.866 20 48 23.134 48 27H46ZM46 37V27H48V37H46ZM46 39V37H48V39H46ZM46 43.75V39H48V43.75H46ZM41.7676 38.2231L47.6296 42.9731L46.3704 44.5269L40.5085 39.7769L41.7676 38.2231ZM31 38H41.1381V40H31V38ZM26 33C26 35.7614 28.2386 38 31 38V40C27.134 40 24 36.866 24 33H26ZM26 27V33H24V27H26ZM31 22C28.2386 22 26 24.2386 26 27H24C24 23.134 27.134 20 31 20V22ZM41 22H31V20H41V22Z" fill="#44D058"/>
<path d="M7 16C7 12.6863 9.68629 10 13 10H27C31.4183 10 35 13.5817 35 18V25C35 29.4183 31.4183 33 27 33H7V16Z" fill="white"/>
<path fill-rule="evenodd" clip-rule="evenodd" d="M16 12C12.6863 12 10 14.6863 10 18V28V30V34.75L15.8619 30H26C29.3137 30 32 27.3137 32 24V18C32 14.6863 29.3137 12 26 12H16Z" fill="white"/>
<path d="M10 34.75H9C9 35.1355 9.22163 35.4867 9.56963 35.6527C9.91764 35.8186 10.33 35.7697 10.6296 35.5269L10 34.75ZM15.8619 30V29C15.6327 29 15.4105 29.0787 15.2324 29.2231L15.8619 30ZM11 18C11 15.2386 13.2386 13 16 13V11C12.134 11 9 14.134 9 18H11ZM11 28V18H9V28H11ZM11 30V28H9V30H11ZM11 34.75V30H9V34.75H11ZM15.2324 29.2231L9.37043 33.9731L10.6296 35.5269L16.4915 30.7769L15.2324 29.2231ZM26 29H15.8619V31H26V29ZM31 24C31 26.7614 28.7614 29 26 29V31C29.866 31 33 27.866 33 24H31ZM31 18V24H33V18H31ZM26 13C28.7614 13 31 15.2386 31 18H33C33 14.134 29.866 11 26 11V13ZM16 13H26V11H16V13Z" fill="#44D058"/>
<path opacity="0.5" fill-rule="evenodd" clip-rule="evenodd" d="M17 21C17 21.5523 16.5523 22 16 22C15.4477 22 15 21.5523 15 21C15 20.4477 15.4477 20 16 20C16.5523 20 17 20.4477 17 21ZM22 21C22 21.5523 21.5523 22 21 22C20.4477 22 20 21.5523 20 21C20 20.4477 20.4477 20 21 20C21.5523 20 22 20.4477 22 21ZM26 22C26.5523 22 27 21.5523 27 21C27 20.4477 26.5523 20 26 20C25.4477 20 25 20.4477 25 21C25 21.5523 25.4477 22 26 22Z" fill="#44D058"/>
</svg>
