<svg width="48" height="48" viewBox="0 0 48 48" fill="none" xmlns="http://www.w3.org/2000/svg">
<path d="M25.2553 30.9602C30.28 30.9602 34.3533 26.7465 34.3533 21.5485C34.3533 16.3505 30.28 12.1367 25.2553 12.1367C20.2306 12.1367 16.1572 16.3505 16.1572 21.5485C16.1572 26.7465 20.2306 30.9602 25.2553 30.9602Z" fill="#5EC12F"/>
<path d="M31.6721 18.5878C32.2996 19.4662 32.5848 20.5203 32.5848 21.5745C32.5848 22.8628 32.0714 24.0926 31.2158 25.0882L31.7292 27.1964H33.3263L35.0376 25.1467L35.4939 22.1601L35.608 20.4032L33.9538 18.4121C33.9538 18.4121 31.6721 18.5878 31.6721 18.5878Z" fill="#5EC12F"/>
<path d="M12.0028 27.7324L12.3599 29.013C12.3599 29.013 15.9911 36.8794 24.0868 39.7455C24.0868 39.7455 31.7063 36.3916 34.9803 30.7205L30.2181 26.5128C30.2181 26.5128 28.0156 28.3422 24.8011 28.3422C21.5867 28.3422 17.1816 26.3299 17.1816 22.1223C17.1816 17.9147 21.7057 16.3902 21.7057 16.3902L19.8008 15.9023H14.8601L11.7646 23.9517L12.0028 27.7324Z" fill="#5EC12F"/>
<path d="M39.3725 19.1081C39.2524 18.9865 35.1691 13.6382 24.1201 9.62695C13.2512 13.5166 8.62744 19.1081 8.62744 19.1081C9.04778 21.6607 10.1287 24.5172 11.0294 26.7051C11.0895 26.8874 12.4105 29.2577 13.3113 30.534C12.7708 29.2577 12.1703 28.1638 12.1703 26.2189C12.1703 20.8098 16.1936 16.4339 21.1777 16.2516C21.2978 16.2516 21.4179 16.2516 21.538 16.2516L20.337 14.9753C20.337 14.9753 25.1409 14.1244 31.326 18.0141C31.326 18.0141 31.4461 18.1964 31.326 18.8042C31.326 18.8042 34.2083 20.1413 34.5086 22.6939C34.8088 25.2465 33.1875 26.7051 31.9865 26.8875C31.9865 26.8875 32.647 25.8543 31.6262 25.2465C31.386 25.1249 31.1458 25.0642 30.9056 25.0642C28.9841 25.0642 28.8039 27.3129 28.8039 27.3129C28.8039 27.4344 28.8039 27.556 28.8039 27.6775C28.8039 27.6775 28.5037 31.0202 34.1483 30.9595C34.1483 30.9595 37.0306 27.556 37.7512 24.5172C38.0515 23.3624 38.2316 22.5723 38.3517 21.9038C38.652 20.9921 38.9522 20.0805 39.2524 19.1688C39.3125 19.2296 39.3725 19.1081 39.3725 19.1081Z" fill="#EFF9EA"/>
<path d="M28.9222 19.0391C28.9759 18.9795 29.2446 18.8602 29.5133 18.562C30.0506 18.6217 30.5879 18.8602 30.5879 18.8602C29.6207 18.2043 28.2774 17.7869 26.8266 17.7869C26.7728 17.7272 27.3639 18.6813 28.9222 19.0391Z" fill="#EFF9EA"/>
<path d="M40 18.0534L39.9402 18.4787C39.8804 18.7825 39.6411 19.9978 39.3421 21.1522C38.7439 23.2181 38.0262 25.284 37.0692 27.2283C35.7533 29.9626 34.1383 32.3322 32.2841 34.2766C30.0112 36.6463 27.3794 38.4691 24.4486 39.5628L24.2692 39.6236L23.9701 39.7451L23.671 39.6236L23.5514 39.5628C20.6206 38.4691 17.9888 36.707 15.7159 34.2766C13.8617 32.3322 12.2467 29.9626 10.9907 27.2283C9.79439 24.6764 8.83738 22.0029 8.23925 19.2079C8.17944 18.9648 8.11963 18.7218 8.11963 18.4787L8 18.1142L8.17944 17.9319L8.29907 17.8104C10.9907 15.4407 14.1607 13.3748 17.5701 11.6735C19.843 10.519 21.9364 9.66837 23.4916 9.12152L23.9701 9L24.2692 9.12152L24.4486 9.18228C26.0037 9.72913 28.0972 10.5798 30.3701 11.7342C33.7794 13.4356 36.9495 15.5014 39.6411 17.8711L40 18.0534ZM9.01682 19.0863C9.13645 19.6332 9.25607 20.3016 9.49533 20.9699C10.0336 23.0358 10.8112 24.9802 11.7084 26.9245C12.9645 29.5372 14.5196 31.8462 16.314 33.7298C18.4673 36.0387 20.9794 37.74 23.8505 38.7729L24.0299 38.8337L24.2692 38.7729C27.0804 37.74 29.5925 36.0387 31.8056 33.669C33.6 31.7854 35.1551 29.4765 36.4112 26.8638C37.3084 24.9802 38.086 22.975 38.6243 20.9699C38.8037 20.3016 38.9832 19.6332 39.1028 19.0863C39.1626 18.9041 39.1626 18.661 39.2224 18.4787C36.5907 16.1698 33.4804 14.1647 30.1308 12.4634C27.8579 11.3089 25.8243 10.519 24.2692 9.97218L24.1495 9.91142L24.2692 9.48609L24.1495 9.91142L23.9701 9.85065L24.0897 9.42533L24.2093 9.85065L23.8505 9.97218C22.2953 10.519 20.2617 11.3089 17.9888 12.4634C14.5794 14.1039 11.4692 16.109 8.83738 18.418L8.65794 18.6002L8.41869 18.2964L8.83738 18.2357V18.418L8.41869 18.4787L8.77757 18.3572C8.8972 18.5395 8.95701 18.8433 9.01682 19.0863ZM31.2673 33.2437C33.0019 31.4208 34.4972 29.1727 35.7533 26.5599C36.5907 24.8586 37.2486 23.0966 37.7869 21.3345C38.0262 20.4838 38.2654 19.5724 38.4449 18.661C35.8131 16.3521 32.7028 14.4077 29.3533 12.7672C28.157 12.1596 26.9607 11.6735 25.7645 11.1874C25.1664 10.9444 24.5682 10.7621 23.9701 10.519C23.4916 10.7013 22.8935 10.8836 22.1757 11.1874C20.9794 11.6735 19.7234 12.2203 18.5869 12.7672C15.2374 14.4077 12.1271 16.3521 9.49533 18.661C9.67477 19.5724 9.91402 20.4838 10.1533 21.3345C10.6916 23.1573 11.3495 24.9194 12.1869 26.5599C13.443 29.1119 14.9383 31.3601 16.6729 33.1829C18.7664 35.4311 21.2187 37.0716 23.9701 38.1046C26.7215 37.1324 29.1738 35.4918 31.2673 33.2437ZM36.471 26.9245C35.1551 29.598 33.6 31.9069 31.8056 33.7905C29.5925 36.1602 26.9607 37.9223 24.0897 38.9552L23.9701 39.016L23.8505 38.9552C20.9794 37.8615 18.3477 36.1602 16.1346 33.7905C14.3402 31.9069 12.785 29.598 11.4692 26.9245C10.6318 25.2232 9.91402 23.4004 9.3757 21.5775C9.01682 20.3623 8.77757 19.3294 8.65794 18.5395L8.59813 18.2964L8.77757 18.1142C11.529 15.6837 14.7589 13.6786 18.228 11.9773C19.4243 11.3697 20.6804 10.8228 21.8766 10.3367C22.5346 10.0937 23.1925 9.85065 23.7907 9.60761L23.9103 9.54685L24.0299 9.60761C24.5682 9.78989 25.1664 10.0329 25.9439 10.3367C27.3196 10.8836 28.5159 11.4304 29.7121 12.0381C33.1813 13.7394 36.4112 15.8052 39.1626 18.1749L39.3421 18.3572L39.2822 18.6002C39.1626 19.3901 38.9234 20.4231 38.5645 21.5775C38.0262 23.4611 37.3084 25.2232 36.471 26.9245Z" fill="#5EC12F"/>
<circle opacity="0.1" cx="24" cy="24" r="24" fill="#5EC12F"/>
</svg>
